{"title":"All Cheerleaders Die 2013 HDRip x264 Pimp4003","uid":10377767,"size":1182284882,"categoryP":"video","categoryS":"movies","magnet":"?xt=urn:btih:f878709688d18abb22c75e1e182eacffffe89315&amp;dn=All+Cheerleaders+Die+2013+HDRip+x264+Pimp4003&amp;tr=udp%3A%2F%2Ftracker.openbittorrent.com%3A80&amp;tr=udp%3A%2F%2Fopen.demonii.com%3A1337&amp;tr=udp%3A%2F%2Ftracker.coppersurfer.tk%3A6969&amp;tr=udp%3A%2F%2Fexodus.desync.com%3A6969","seeders":1,"leechers":0,"uploader":".BONE.","files":2,"time":1403025751,"description":"All Cheerleaders Die 2013 HDRip x264 Pimp4003\n &lt;a href=&quot;\nhttp://www.imdb.com/title/tt2527186/&quot; rel=&quot;nofollow&quot; target=&quot;_NEW&quot;&gt;\nhttp://www.imdb.com/title/tt2527186/&lt;/a&gt;\n\nA rebel girl signs up a group of cheerleaders to help her take down the captain of their high school football team, but a supernatural turn of events thrusts the girls into a different battle.\n\nDirectors: Lucky McKee, Chris Sivertson\nWriters: Lucky McKee (screenplay), Chris Sivertson (screenplay)\nStars: Caitlin Stasey, Sianoa Smit-McPhee, Brooke Butler | See full cast and crew Â»\n\nVideo\nID : 1\nFormat : AVC\nFormat/Info : Advanced Video Codec\nFormat profile : &lt;a class=&quot;__cf_email__&quot; href=&quot;/cdn-cgi/l/email-protection&quot; data-cfemail=&quot;175f7e707f575b233926&quot;&gt;[email&amp;#160;protected]&lt;/a&gt;&lt;script cf-hash='f9e31' type=&quot;text/javascript&quot;&gt;\n/* &lt;![CDATA[ */!function(){try{var t=&quot;currentScript&quot;in document?document.currentScript:function(){for(var t=document.getElementsByTagName(&quot;script&quot;),e=t.length;e--;)if(t[e].getAttribute(&quot;cf-hash&quot;))return t[e]}();if(t&amp;&amp;t.previousSibling){var e,r,n,i,c=t.previousSibling,a=c.getAttribute(&quot;data-cfemail&quot;);if(a){for(e=&quot;&quot;,r=parseInt(a.substr(0,2),16),n=2;a.length-n;n+=2)i=parseInt(a.substr(n,2),16)^r,e+=String.fromCharCode(i);e=document.createTextNode(e),c.parentNode.replaceChild(e,c)}}}catch(u){}}();/* ]]&gt; */&lt;/script&gt;\nFormat settings, CABAC : Yes\nFormat settings, ReFrames : 4 frames\nCodec ID : avc1\nCodec ID/Info : Advanced Video Coding\nDuration : 1h 29mn\nBit rate : 1 621 Kbps\nMaximum bit rate : 9 230 Kbps\nWidth : 720 pixels\nHeight : 296 pixels\nDisplay aspect ratio : 2.40:1\nFrame rate mode : Constant\nFrame rate : 23.976 fps\nColor space : YUV\nChroma subsampling : 4:2:0\nBit depth : 8 bits\nScan type : Progressive\nBits/(Pixel*Frame) : 0.317\nStream size : 1.02 GiB (92%)\n\nAudio\nID : 2\nFormat : AAC\nFormat/Info : Advanced Audio Codec\nFormat profile : LC\nCodec ID : 40\nDuration : 1h 29mn\nBit rate mode : Variable\nBit rate : 132 Kbps\nMaximum bit rate : 139 Kbps\nChannel(s) : 2 channels\nChannel positions : Front: L R\nSampling rate : 48.0 KHz\nCompression mode : Lossy\nStream size : 84.5 MiB (7%)\nEncoded date : UTC 2014-06-16 09:37:12\nTagged date : UTC 2014-06-16 09:41:47","torrent":{"xt":"urn:btih:f878709688d18abb22c75e1e182eacffffe89315","amp;dn":"All+Cheerleaders+Die+2013+HDRip+x264+Pimp4003","amp;tr":["udp%3A%2F%2Ftracker.openbittorrent.com%3A80","udp%3A%2F%2Fopen.demonii.com%3A1337","udp%3A%2F%2Ftracker.coppersurfer.tk%3A6969","udp%3A%2F%2Fexodus.desync.com%3A6969"],"infoHash":"f878709688d18abb22c75e1e182eacffffe89315","infoHashBuffer":{"type":"Buffer","data":[248,120,112,150,136,209,138,187,34,199,94,30,24,46,172,255,255,232,147,21]},"announce":[],"urlList":[]}}